<?xml version="1.0" encoding="utf-8" standalone="no"?>
<!DOCTYPE svg PUBLIC "-//W3C//DTD SVG 1.1//EN"
  "http://www.w3.org/Graphics/SVG/1.1/DTD/svg11.dtd">
<svg xmlns:xlink="http://www.w3.org/1999/xlink" width="3600pt" height="3600pt" viewBox="0 0 3600 3600" xmlns="http://www.w3.org/2000/svg" version="1.1">
 <metadata>
  <rdf:RDF xmlns:dc="http://purl.org/dc/elements/1.1/" xmlns:cc="http://creativecommons.org/ns#" xmlns:rdf="http://www.w3.org/1999/02/22-rdf-syntax-ns#">
   <cc:Work>
    <dc:type rdf:resource="http://purl.org/dc/dcmitype/StillImage"/>
    <dc:date>2022-12-29T17:20:16.488230</dc:date>
    <dc:format>image/svg+xml</dc:format>
    <dc:creator>
     <cc:Agent>
      <dc:title>Matplotlib v3.6.2, https://matplotlib.org/</dc:title>
     </cc:Agent>
    </dc:creator>
   </cc:Work>
  </rdf:RDF>
 </metadata>
 <defs>
  <style type="text/css">*{stroke-linejoin: round; stroke-linecap: butt}</style>
 </defs>
 <g id="figure_1">
  <g id="patch_1">
   <path d="M 0 3600 
L 3600 3600 
L 3600 0 
L 0 0 
z
" style="fill: #ffffff"/>
  </g>
  <g id="axes_1">
   <g id="patch_2">
    <path d="M 3281.578938 1760.142711 
Q 3261.88204 1629.827796 3242.206865 1499.656593 
" clip-path="url(#pf2aff44821)" style="fill: none; stroke: #000000; stroke-width: 0.13; stroke-linecap: round"/>
    <path d="M 3240.82713 1503.910572 
L 3242.206865 1499.656593 
L 3244.782206 1503.312768 
L 3240.82713 1503.910572 
z
" clip-path="url(#pf2aff44821)" style="stroke: #000000; stroke-width: 0.13; stroke-linecap: round"/>
   </g>
   <g id="patch_3">
    <path d="M 3275.691331 1761.49031 
Q 3175.352619 1437.109784 3075.056857 1112.868112 
" clip-path="url(#pf2aff44821)" style="fill: none; stroke: #000000; stroke-width: 0.13; stroke-linecap: round"/>
    <path d="M 3074.328216 1117.28049 
L 3075.056857 1112.868112 
L 3078.149575 1116.098452 
L 3074.328216 1117.28049 
z
" clip-path="url(#pf2aff44821)" style="stroke: #000000; stroke-width: 0.13; stroke-linecap: round"/>
   </g>
   <g id="patch_4">
    <path d="M 3270.072856 1763.699434 
Q 3022.920579 1251.917485 2775.831509 740.266417 
" clip-path="url(#pf2aff44821)" style="fill: none; stroke: #000000; stroke-width: 0.13; stroke-linecap: round"/>
    <path d="M 2775.770005 744.73813 
L 2775.831509 740.266417 
L 2779.371977 742.998648 
L 2775.770005 744.73813 
z
" clip-path="url(#pf2aff44821)" style="stroke: #000000; stroke-width: 0.13; stroke-linecap: round"/>
   </g>
   <g id="patch_5">
    <path d="M 3264.853212 1766.725047 
Q 2819.858866 1115.863295 2374.946553 465.121526 
" clip-path="url(#pf2aff44821)" style="fill: none; stroke: #000000; stroke-width: 0.13; stroke-linecap: round"/>
    <path d="M 2375.553134 469.552334 
L 2374.946553 465.121526 
L 2378.855148 467.294746 
L 2375.553134 469.552334 
z
" clip-path="url(#pf2aff44821)" style="stroke: #000000; stroke-width: 0.13; stroke-linecap: round"/>
   </g>
   <g id="patch_6">
    <path d="M 3260.143789 1770.48843 
Q 2590.47434 1050.774507 1920.903899 331.166991 
" clip-path="url(#pf2aff44821)" style="fill: none; stroke: #000000; stroke-width: 0.13; stroke-linecap: round"/>
    <path d="M 1922.164478 335.457788 
L 1920.903899 331.166991 
L 1925.092884 332.733006 
L 1922.164478 335.457788 
z
" clip-path="url(#pf2aff44821)" style="stroke: #000000; stroke-width: 0.13; stroke-linecap: round"/>
   </g>
   <g id="patch_7">
    <path d="M 3159.911066 1233.499697 
Q 3128.628067 1168.721515 3098.10354 1105.513912 
" clip-path="url(#pf2aff44821)" style="fill: none; stroke: #000000; stroke-width: 1.56; stroke-linecap: round"/>
    <path d="M 3098.042036 1109.985625 
L 3098.10354 1105.513912 
L 3101.644008 1108.246143 
L 3098.042036 1109.985625 
z
" clip-path="url(#pf2aff44821)" style="stroke: #000000; stroke-width: 1.56; stroke-linecap: round"/>
   </g>
   <g id="patch_8">
    <path d="M 3083.848196 1329.042874 
Q 1957.517711 1072.684175 834.446784 817.067369 
" clip-path="url(#pf2aff44821)" style="fill: none; stroke: #000000; stroke-width: 2.99; stroke-linecap: round"/>
    <path d="M 837.903177 819.905212 
L 834.446784 817.067369 
L 838.790894 816.004961 
L 837.903177 819.905212 
z
" clip-path="url(#pf2aff44821)" style="stroke: #000000; stroke-width: 2.99; stroke-linecap: round"/>
   </g>
   <g id="patch_9">
    <path d="M 3080.73465 1349.799012 
Q 1794.693316 1253.692977 508.796923 1157.597774 
" clip-path="url(#pf2aff44821)" style="fill: none; stroke: #000000; stroke-width: 0.13; stroke-linecap: round"/>
    <path d="M 512.636756 1159.890302 
L 508.796923 1157.597774 
L 512.934845 1155.901424 
L 512.636756 1159.890302 
z
" clip-path="url(#pf2aff44821)" style="stroke: #000000; stroke-width: 0.13; stroke-linecap: round"/>
   </g>
   <g id="patch_10">
    <path d="M 3141.675967 1244.06221 
Q 2966.377757 987.665884 2791.24361 731.509523 
" clip-path="url(#pf2aff44821)" style="fill: none; stroke: #000000; stroke-width: 0.26; stroke-linecap: round"/>
    <path d="M 2791.85019 735.940331 
L 2791.24361 731.509523 
L 2795.152205 733.682743 
L 2791.85019 735.940331 
z
" clip-path="url(#pf2aff44821)" style="stroke: #000000; stroke-width: 0.26; stroke-linecap: round"/>
   </g>
   <g id="patch_11">
    <path d="M 3125.231671 1257.213886 
Q 2753.843907 858.072298 2382.555152 459.037116 
" clip-path="url(#pf2aff44821)" style="fill: none; stroke: #000000; stroke-width: 0.13; stroke-linecap: round"/>
    <path d="M 2383.815732 463.327913 
L 2382.555152 459.037116 
L 2386.744137 460.60313 
L 2383.815732 463.327913 
z
" clip-path="url(#pf2aff44821)" style="stroke: #000000; stroke-width: 0.13; stroke-linecap: round"/>
   </g>
   <g id="patch_12">
    <path d="M 2871.427532 995.213558 
Q 1616.772083 1280.779739 362.258354 1566.313664 
" clip-path="url(#pf2aff44821)" style="fill: none; stroke: #000000; stroke-width: 0.13; stroke-linecap: round"/>
    <path d="M 366.602463 1567.376072 
L 362.258354 1566.313664 
L 365.714746 1563.475821 
L 366.602463 1567.376072 
z
" clip-path="url(#pf2aff44821)" style="stroke: #000000; stroke-width: 0.13; stroke-linecap: round"/>
   </g>
   <g id="patch_13">
    <path d="M 3027.663841 662.132691 
C 3176.841299 662.132691 3176.841299 959.653352 3027.663841 959.653352 
C 2878.486383 959.653352 2878.486383 662.132691 3027.373152 662.132691 
" clip-path="url(#pf2aff44821)" style="fill: none; stroke: #000000; stroke-width: 0.26; stroke-linecap: round"/>
    <path d="M 3023.373152 660.132691 
L 3027.373152 662.132691 
L 3023.373152 664.132691 
L 3023.373152 660.132691 
z
" clip-path="url(#pf2aff44821)" style="stroke: #000000; stroke-width: 0.26; stroke-linecap: round"/>
   </g>
   <g id="patch_14">
    <path d="M 2867.872839 947.712165 
Q 1851.079404 871.727159 835.735372 795.850467 
" clip-path="url(#pf2aff44821)" style="fill: none; stroke: #000000; stroke-width: 1.3; stroke-linecap: round"/>
    <path d="M 839.575205 798.142995 
L 835.735372 795.850467 
L 839.873294 794.154117 
L 839.575205 798.142995 
z
" clip-path="url(#pf2aff44821)" style="stroke: #000000; stroke-width: 1.3; stroke-linecap: round"/>
   </g>
   <g id="patch_15">
    <path d="M 2918.51361 842.346313 
Q 2861.702288 781.289475 2804.989975 720.339045 
" clip-path="url(#pf2aff44821)" style="fill: none; stroke: #000000; stroke-width: 0.13; stroke-linecap: round"/>
    <path d="M 2806.250554 724.629842 
L 2804.989975 720.339045 
L 2809.17896 721.905059 
L 2806.250554 724.629842 
z
" clip-path="url(#pf2aff44821)" style="stroke: #000000; stroke-width: 0.13; stroke-linecap: round"/>
   </g>
   <g id="patch_16">
    <path d="M 2804.890369 720.231996 
Q 2861.700392 781.287437 2917.223311 840.95959 
" clip-path="url(#pf2aff44821)" style="fill: none; stroke: #000000; stroke-width: 1.69; stroke-linecap: round"/>
    <path d="M 2915.962731 836.668793 
L 2917.223311 840.95959 
L 2913.034325 839.393575 
L 2915.962731 836.668793 
z
" clip-path="url(#pf2aff44821)" style="stroke: #000000; stroke-width: 1.69; stroke-linecap: round"/>
   </g>
   <g id="patch_17">
    <path d="M 2606.471984 642.493368 
Q 1720.376907 708.711387 835.586292 774.831922 
" clip-path="url(#pf2aff44821)" style="fill: none; stroke: #000000; stroke-width: 1.17; stroke-linecap: round"/>
    <path d="M 839.724214 776.528271 
L 835.586292 774.831922 
L 839.426124 772.539394 
L 839.724214 776.528271 
z
" clip-path="url(#pf2aff44821)" style="stroke: #000000; stroke-width: 1.17; stroke-linecap: round"/>
   </g>
   <g id="patch_18">
    <path d="M 2389.055698 451.804453 
Q 2645.653421 655.862094 2902.023628 859.738804 
" clip-path="url(#pf2aff44821)" style="fill: none; stroke: #000000; stroke-width: 0.26; stroke-linecap: round"/>
    <path d="M 2900.137746 855.683752 
L 2902.023628 859.738804 
L 2897.648057 858.814478 
L 2900.137746 855.683752 
z
" clip-path="url(#pf2aff44821)" style="stroke: #000000; stroke-width: 0.26; stroke-linecap: round"/>
   </g>
   <g id="patch_19">
    <path d="M 1387.536151 373.503876 
Q 1239.342964 431.502779 1091.285124 489.44871 
" clip-path="url(#pf2aff44821)" style="fill: none; stroke: #000000; stroke-width: 0.13; stroke-linecap: round"/>
    <path d="M 1095.738918 489.853331 
L 1091.285124 489.44871 
L 1094.281097 486.128448 
L 1095.738918 489.853331 
z
" clip-path="url(#pf2aff44821)" style="stroke: #000000; stroke-width: 0.13; stroke-linecap: round"/>
   </g>
   <g id="patch_20">
    <path d="M 1525.048594 383.789816 
Q 2312.084067 836.914372 3098.99358 1289.966408 
" clip-path="url(#pf2aff44821)" style="fill: none; stroke: #000000; stroke-width: 0.13; stroke-linecap: round"/>
    <path d="M 3096.524958 1286.237345 
L 3098.99358 1289.966408 
L 3094.529157 1289.703868 
L 3096.524958 1286.237345 
z
" clip-path="url(#pf2aff44821)" style="stroke: #000000; stroke-width: 0.13; stroke-linecap: round"/>
   </g>
   <g id="patch_21">
    <path d="M 1529.98682 373.502088 
Q 2204.218283 637.37849 2877.908355 901.043007 
" clip-path="url(#pf2aff44821)" style="fill: none; stroke: #000000; stroke-width: 0.52; stroke-linecap: round"/>
    <path d="M 2874.912382 897.722744 
L 2877.908355 901.043007 
L 2873.454561 901.447627 
L 2874.912382 897.722744 
z
" clip-path="url(#pf2aff44821)" style="stroke: #000000; stroke-width: 0.52; stroke-linecap: round"/>
   </g>
   <g id="patch_22">
    <path d="M 1392.480804 383.788753 
Q 1104.266388 549.724159 816.429852 715.442006 
" clip-path="url(#pf2aff44821)" style="fill: none; stroke: #000000; stroke-width: 0.39; stroke-linecap: round"/>
    <path d="M 820.894275 715.179466 
L 816.429852 715.442006 
L 818.898473 711.712944 
L 820.894275 715.179466 
z
" clip-path="url(#pf2aff44821)" style="stroke: #000000; stroke-width: 0.39; stroke-linecap: round"/>
   </g>
   <g id="patch_23">
    <path d="M 1398.896476 393.236337 
Q 946.800973 752.762309 495.160503 1111.926419 
" clip-path="url(#pf2aff44821)" style="fill: none; stroke: #000000; stroke-width: 0.52; stroke-linecap: round"/>
    <path d="M 499.536074 1111.002093 
L 495.160503 1111.926419 
L 497.046385 1107.871367 
L 499.536074 1111.002093 
z
" clip-path="url(#pf2aff44821)" style="stroke: #000000; stroke-width: 0.52; stroke-linecap: round"/>
   </g>
   <g id="patch_24">
    <path d="M 1533.339823 362.601165 
Q 2071.214845 485.02433 2608.948147 607.41524 
" clip-path="url(#pf2aff44821)" style="fill: none; stroke: #000000; stroke-width: 0.13; stroke-linecap: round"/>
    <path d="M 2605.491755 604.577397 
L 2608.948147 607.41524 
L 2604.604037 608.477648 
L 2605.491755 604.577397 
z
" clip-path="url(#pf2aff44821)" style="stroke: #000000; stroke-width: 0.13; stroke-linecap: round"/>
   </g>
   <g id="patch_25">
    <path d="M 1535.033053 351.326875 
Q 1904.196654 378.914499 2272.925434 406.469629 
" clip-path="url(#pf2aff44821)" style="fill: none; stroke: #000000; stroke-width: 0.39; stroke-linecap: round"/>
    <path d="M 2269.085601 404.177101 
L 2272.925434 406.469629 
L 2268.787512 408.165979 
L 2269.085601 404.177101 
z
" clip-path="url(#pf2aff44821)" style="stroke: #000000; stroke-width: 0.39; stroke-linecap: round"/>
   </g>
   <g id="patch_26">
    <path d="M 1535.039619 339.92717 
Q 1706.527975 327.111842 1877.87139 314.307345 
" clip-path="url(#pf2aff44821)" style="fill: none; stroke: #000000; stroke-width: 0.13; stroke-linecap: round"/>
    <path d="M 1873.733468 312.610995 
L 1877.87139 314.307345 
L 1874.031557 316.599873 
L 1873.733468 312.610995 
z
" clip-path="url(#pf2aff44821)" style="stroke: #000000; stroke-width: 0.13; stroke-linecap: round"/>
   </g>
   <g id="patch_27">
    <path d="M 1093.387039 519.401867 
Q 1982.405506 721.747105 2870.290213 923.834293 
" clip-path="url(#pf2aff44821)" style="fill: none; stroke: #000000; stroke-width: 1.04; stroke-linecap: round"/>
    <path d="M 2866.83382 920.996451 
L 2870.290213 923.834293 
L 2865.946103 924.896702 
L 2866.83382 920.996451 
z
" clip-path="url(#pf2aff44821)" style="stroke: #000000; stroke-width: 1.04; stroke-linecap: round"/>
   </g>
   <g id="patch_28">
    <path d="M 816.051196 715.660012 
Q 1104.2659 549.72444 1392.354644 383.861388 
" clip-path="url(#pf2aff44821)" style="fill: none; stroke: #000000; stroke-width: 0.13; stroke-linecap: round"/>
    <path d="M 1387.890221 384.123928 
L 1392.354644 383.861388 
L 1389.886022 387.590451 
L 1387.890221 384.123928 
z
" clip-path="url(#pf2aff44821)" style="stroke: #000000; stroke-width: 0.13; stroke-linecap: round"/>
   </g>
   <g id="patch_29">
    <path d="M 804.328195 698.417798 
Q 904.044691 619.118873 1003.419912 540.091344 
" clip-path="url(#pf2aff44821)" style="fill: none; stroke: #000000; stroke-width: 0.39; stroke-linecap: round"/>
    <path d="M 999.044341 541.015672 
L 1003.419912 540.091344 
L 1001.534031 544.146397 
L 999.044341 541.015672 
z
" clip-path="url(#pf2aff44821)" style="stroke: #000000; stroke-width: 0.39; stroke-linecap: round"/>
   </g>
   <g id="patch_30">
    <path d="M 831.187891 816.325628 
Q 1957.521174 1072.684963 3082.720697 1328.786249 
" clip-path="url(#pf2aff44821)" style="fill: none; stroke: #000000; stroke-width: 1.04; stroke-linecap: round"/>
    <path d="M 3079.264305 1325.948406 
L 3082.720697 1328.786249 
L 3078.376587 1329.848657 
L 3079.264305 1325.948406 
z
" clip-path="url(#pf2aff44821)" style="stroke: #000000; stroke-width: 1.04; stroke-linecap: round"/>
   </g>
   <g id="patch_31">
    <path d="M 834.284857 795.74207 
Q 1851.079224 871.727146 2865.119726 947.506425 
" clip-path="url(#pf2aff44821)" style="fill: none; stroke: #000000; stroke-width: 2.47; stroke-linecap: round"/>
    <path d="M 2861.279893 945.213897 
L 2865.119726 947.506425 
L 2860.981804 949.202775 
L 2861.279893 945.213897 
z
" clip-path="url(#pf2aff44821)" style="stroke: #000000; stroke-width: 2.47; stroke-linecap: round"/>
   </g>
   <g id="patch_32">
    <path d="M 695.031104 487.814971 
C 844.208562 487.814971 844.208562 785.335632 695.031104 785.335632 
C 545.853645 785.335632 545.853645 487.814971 694.885759 487.814971 
" clip-path="url(#pf2aff44821)" style="fill: none; stroke: #000000; stroke-width: 0.13; stroke-linecap: round"/>
    <path d="M 690.885759 485.814971 
L 694.885759 487.814971 
L 690.885759 489.814971 
L 690.885759 485.814971 
z
" clip-path="url(#pf2aff44821)" style="stroke: #000000; stroke-width: 0.13; stroke-linecap: round"/>
   </g>
   <g id="patch_33">
    <path d="M 616.215932 900.612983 
Q 548.367819 999.849598 480.847833 1098.606284 
" clip-path="url(#pf2aff44821)" style="fill: none; stroke: #000000; stroke-width: 0.52; stroke-linecap: round"/>
    <path d="M 484.756428 1096.433065 
L 480.847833 1098.606284 
L 481.454414 1094.175476 
L 484.756428 1096.433065 
z
" clip-path="url(#pf2aff44821)" style="stroke: #000000; stroke-width: 0.52; stroke-linecap: round"/>
   </g>
   <g id="patch_34">
    <path d="M 834.285036 774.929165 
Q 1720.378442 708.711272 2605.747147 642.547536 
" clip-path="url(#pf2aff44821)" style="fill: none; stroke: #000000; stroke-width: 0.65; stroke-linecap: round"/>
    <path d="M 2601.609225 640.851186 
L 2605.747147 642.547536 
L 2601.907314 644.840064 
L 2601.609225 640.851186 
z
" clip-path="url(#pf2aff44821)" style="stroke: #000000; stroke-width: 0.65; stroke-linecap: round"/>
   </g>
   <g id="patch_35">
    <path d="M 831.19027 754.345082 
Q 1552.996955 590.058039 2274.23676 425.900021 
" clip-path="url(#pf2aff44821)" style="fill: none; stroke: #000000; stroke-width: 0.52; stroke-linecap: round"/>
    <path d="M 2269.89265 424.837613 
L 2274.23676 425.900021 
L 2270.780368 428.737864 
L 2269.89265 424.837613 
z
" clip-path="url(#pf2aff44821)" style="stroke: #000000; stroke-width: 0.52; stroke-linecap: round"/>
   </g>
   <g id="patch_36">
    <path d="M 804.326551 872.252115 
Q 1908.93981 1750.688508 3013.43931 2629.034436 
" clip-path="url(#pf2aff44821)" style="fill: none; stroke: #000000; stroke-width: 0.13; stroke-linecap: round"/>
    <path d="M 3011.553429 2624.979383 
L 3013.43931 2629.034436 
L 3009.063739 2628.11011 
L 3011.553429 2624.979383 
z
" clip-path="url(#pf2aff44821)" style="stroke: #000000; stroke-width: 0.13; stroke-linecap: round"/>
   </g>
   <g id="patch_37">
    <path d="M 508.655905 1147.899008 
Q 1688.266144 1059.746645 2866.42698 971.702595 
" clip-path="url(#pf2aff44821)" style="fill: none; stroke: #000000; stroke-width: 1.3; stroke-linecap: round"/>
    <path d="M 2862.289058 970.006245 
L 2866.42698 971.702595 
L 2862.587147 973.995123 
L 2862.289058 970.006245 
z
" clip-path="url(#pf2aff44821)" style="stroke: #000000; stroke-width: 1.3; stroke-linecap: round"/>
   </g>
   <g id="patch_38">
    <path d="M 341.176729 1535.567913 
Q 678.032637 1042.872538 1014.806513 550.297146 
" clip-path="url(#pf2aff44821)" style="fill: none; stroke: #000000; stroke-width: 0.13; stroke-linecap: round"/>
    <path d="M 1010.897918 552.470367 
L 1014.806513 550.297146 
L 1014.199932 554.727954 
L 1010.897918 552.470367 
z
" clip-path="url(#pf2aff44821)" style="stroke: #000000; stroke-width: 0.13; stroke-linecap: round"/>
   </g>
   <g id="patch_39">
    <path d="M 363.246811 1573.862407 
Q 1721.989616 1472.323454 3080.442542 1370.806164 
" clip-path="url(#pf2aff44821)" style="fill: none; stroke: #000000; stroke-width: 0.26; stroke-linecap: round"/>
    <path d="M 3076.30462 1369.109814 
L 3080.442542 1370.806164 
L 3076.602709 1373.098692 
L 3076.30462 1369.109814 
z
" clip-path="url(#pf2aff44821)" style="stroke: #000000; stroke-width: 0.26; stroke-linecap: round"/>
   </g>
   <g id="patch_40">
    <path d="M 362.11731 1566.345766 
Q 1616.7717 1280.779826 2871.14265 995.278398 
" clip-path="url(#pf2aff44821)" style="fill: none; stroke: #000000; stroke-width: 0.26; stroke-linecap: round"/>
    <path d="M 2866.798541 994.21599 
L 2871.14265 995.278398 
L 2867.686258 998.116241 
L 2866.798541 994.21599 
z
" clip-path="url(#pf2aff44821)" style="stroke: #000000; stroke-width: 0.26; stroke-linecap: round"/>
   </g>
   <g id="patch_41">
    <path d="M 334.570001 1531.747841 
Q 484.437386 1221.4152 634.241565 911.213441 
" clip-path="url(#pf2aff44821)" style="fill: none; stroke: #000000; stroke-width: 0.13; stroke-linecap: round"/>
    <path d="M 630.701097 913.945672 
L 634.241565 911.213441 
L 634.303069 915.685154 
L 630.701097 913.945672 
z
" clip-path="url(#pf2aff44821)" style="stroke: #000000; stroke-width: 0.13; stroke-linecap: round"/>
   </g>
   <g id="patch_42">
    <path d="M 359.877989 1559.079512 
Q 1487.078022 1117.923131 2614.142706 676.819722 
" clip-path="url(#pf2aff44821)" style="fill: none; stroke: #000000; stroke-width: 0.13; stroke-linecap: round"/>
    <path d="M 2609.688912 676.415101 
L 2614.142706 676.819722 
L 2611.146733 680.139985 
L 2609.688912 676.415101 
z
" clip-path="url(#pf2aff44821)" style="stroke: #000000; stroke-width: 0.13; stroke-linecap: round"/>
   </g>
   <g id="patch_43">
    <path d="M 341.473971 2010.95739 
Q 1609.961771 1514.50464 2878.314224 1018.104862 
" clip-path="url(#pf2aff44821)" style="fill: none; stroke: #000000; stroke-width: 0.13; stroke-linecap: round"/>
    <path d="M 2873.86043 1017.700242 
L 2878.314224 1018.104862 
L 2875.318251 1021.425125 
L 2873.86043 1017.700242 
z
" clip-path="url(#pf2aff44821)" style="stroke: #000000; stroke-width: 0.13; stroke-linecap: round"/>
   </g>
   <g id="patch_44">
    <path d="M 317.06318 1991.463926 
Q 375.591841 1604.23736 434.098781 1217.154505 
" clip-path="url(#pf2aff44821)" style="fill: none; stroke: #000000; stroke-width: 0.13; stroke-linecap: round"/>
    <path d="M 431.523439 1220.81068 
L 434.098781 1217.154505 
L 435.478516 1221.408483 
L 431.523439 1220.81068 
z
" clip-path="url(#pf2aff44821)" style="stroke: #000000; stroke-width: 0.13; stroke-linecap: round"/>
   </g>
   <g id="patch_45">
    <path d="M 339.45887 2006.756805 
Q 1480.683832 1349.71261 2621.782835 692.740935 
" clip-path="url(#pf2aff44821)" style="fill: none; stroke: #000000; stroke-width: 0.13; stroke-linecap: round"/>
    <path d="M 2617.318412 693.003475 
L 2621.782835 692.740935 
L 2619.314213 696.469998 
L 2617.318412 693.003475 
z
" clip-path="url(#pf2aff44821)" style="stroke: #000000; stroke-width: 0.13; stroke-linecap: round"/>
   </g>
   <g id="patch_46">
    <path d="M 454.48936 2412.81102 
Q 741.543774 1484.805436 1028.555237 556.938704 
" clip-path="url(#pf2aff44821)" style="fill: none; stroke: #000000; stroke-width: 0.13; stroke-linecap: round"/>
    <path d="M 1025.462519 560.169045 
L 1028.555237 556.938704 
L 1029.283878 561.351083 
L 1025.462519 560.169045 
z
" clip-path="url(#pf2aff44821)" style="stroke: #000000; stroke-width: 0.13; stroke-linecap: round"/>
   </g>
   <g id="patch_47">
    <path d="M 475.082111 2429.266393 
Q 1681.942186 1734.433674 2888.676301 1039.673473 
" clip-path="url(#pf2aff44821)" style="fill: none; stroke: #000000; stroke-width: 0.13; stroke-linecap: round"/>
    <path d="M 2884.211878 1039.936014 
L 2888.676301 1039.673473 
L 2886.20768 1043.402536 
L 2884.211878 1039.936014 
z
" clip-path="url(#pf2aff44821)" style="stroke: #000000; stroke-width: 0.13; stroke-linecap: round"/>
   </g>
   <g id="patch_48">
    <path d="M 472.053506 2424.815773 
Q 1551.944915 1566.039103 2631.722566 707.352898 
" clip-path="url(#pf2aff44821)" style="fill: none; stroke: #000000; stroke-width: 0.13; stroke-linecap: round"/>
    <path d="M 2627.346995 708.277225 
L 2631.722566 707.352898 
L 2629.836684 711.407951 
L 2627.346995 708.277225 
z
" clip-path="url(#pf2aff44821)" style="stroke: #000000; stroke-width: 0.13; stroke-linecap: round"/>
   </g>
   <g id="patch_49">
    <path d="M 468.395033 2420.860797 
Q 1381.148767 1439.896808 2293.803493 459.039225 
" clip-path="url(#pf2aff44821)" style="fill: none; stroke: #000000; stroke-width: 0.13; stroke-linecap: round"/>
    <path d="M 2289.614508 460.60524 
L 2293.803493 459.039225 
L 2292.542914 463.330022 
L 2289.614508 460.60524 
z
" clip-path="url(#pf2aff44821)" style="stroke: #000000; stroke-width: 0.13; stroke-linecap: round"/>
   </g>
   <g id="patch_50">
    <path d="M 700.419441 2779.015708 
Q 868.233127 1668.7574 1036.02509 558.642804 
" clip-path="url(#pf2aff44821)" style="fill: none; stroke: #000000; stroke-width: 0.13; stroke-linecap: round"/>
    <path d="M 1033.449748 562.29898 
L 1036.02509 558.642804 
L 1037.404825 562.896783 
L 1033.449748 562.29898 
z
" clip-path="url(#pf2aff44821)" style="stroke: #000000; stroke-width: 0.13; stroke-linecap: round"/>
   </g>
   <g id="patch_51">
    <path d="M 723.249887 2792.223722 
Q 1812.749921 1925.80583 2902.136196 1059.478403 
" clip-path="url(#pf2aff44821)" style="fill: none; stroke: #000000; stroke-width: 0.13; stroke-linecap: round"/>
    <path d="M 2897.760625 1060.40273 
L 2902.136196 1059.478403 
L 2900.250315 1063.533456 
L 2897.760625 1060.40273 
z
" clip-path="url(#pf2aff44821)" style="stroke: #000000; stroke-width: 0.13; stroke-linecap: round"/>
   </g>
   <g id="patch_52">
    <path d="M 689.642533 2779.013003 
Q 571.59546 1998.011818 453.591831 1217.298057 
" clip-path="url(#pf2aff44821)" style="fill: none; stroke: #000000; stroke-width: 0.26; stroke-linecap: round"/>
    <path d="M 452.212096 1221.552035 
L 453.591831 1217.298057 
L 456.167173 1220.954232 
L 452.212096 1221.552035 
z
" clip-path="url(#pf2aff44821)" style="stroke: #000000; stroke-width: 0.26; stroke-linecap: round"/>
   </g>
   <g id="patch_53">
    <path d="M 1043.666996 3060.694263 
Q 1043.666888 1809.884797 1043.66678 559.220675 
" clip-path="url(#pf2aff44821)" style="fill: none; stroke: #000000; stroke-width: 0.13; stroke-linecap: round"/>
    <path d="M 1041.666781 563.220675 
L 1043.66678 559.220675 
L 1045.666781 563.220675 
L 1041.666781 563.220675 
z
" clip-path="url(#pf2aff44821)" style="stroke: #000000; stroke-width: 0.13; stroke-linecap: round"/>
   </g>
   <g id="patch_54">
    <path d="M 1068.106528 3072.479434 
Q 2089.523111 2260.204425 3110.825935 1448.019881 
" clip-path="url(#pf2aff44821)" style="fill: none; stroke: #000000; stroke-width: 0.13; stroke-linecap: round"/>
    <path d="M 3106.450364 1448.944208 
L 3110.825935 1448.019881 
L 3108.940054 1452.074934 
L 3106.450364 1448.944208 
z
" clip-path="url(#pf2aff44821)" style="stroke: #000000; stroke-width: 0.13; stroke-linecap: round"/>
   </g>
   <g id="patch_55">
    <path d="M 1061.290156 3066.138663 
Q 1859.465377 1898.704003 2657.558567 731.389324 
" clip-path="url(#pf2aff44821)" style="fill: none; stroke: #000000; stroke-width: 0.13; stroke-linecap: round"/>
    <path d="M 2653.649972 733.562544 
L 2657.558567 731.389324 
L 2656.951986 735.820132 
L 2653.649972 733.562544 
z
" clip-path="url(#pf2aff44821)" style="stroke: #000000; stroke-width: 0.13; stroke-linecap: round"/>
   </g>
   <g id="patch_56">
    <path d="M 1473.152827 3233.326748 
Q 2205.189944 2162.627792 2937.062998 1092.168801 
" clip-path="url(#pf2aff44821)" style="fill: none; stroke: #000000; stroke-width: 0.26; stroke-linecap: round"/>
    <path d="M 2933.154403 1094.342021 
L 2937.062998 1092.168801 
L 2936.456418 1096.599609 
L 2933.154403 1094.342021 
z
" clip-path="url(#pf2aff44821)" style="stroke: #000000; stroke-width: 0.26; stroke-linecap: round"/>
   </g>
   <g id="patch_57">
    <path d="M 1908.766615 3270.38002 
Q 2299.096405 2008.499785 2689.383244 746.758402 
" clip-path="url(#pf2aff44821)" style="fill: none; stroke: #000000; stroke-width: 0.13; stroke-linecap: round"/>
    <path d="M 2686.290527 749.988743 
L 2689.383244 746.758402 
L 2690.111886 751.170781 
L 2686.290527 749.988743 
z
" clip-path="url(#pf2aff44821)" style="stroke: #000000; stroke-width: 0.13; stroke-linecap: round"/>
   </g>
   <g id="patch_58">
    <path d="M 2351.759372 3160.535575 
Q 2755.835911 2323.808178 3159.849245 1487.211663 
" clip-path="url(#pf2aff44821)" style="fill: none; stroke: #000000; stroke-width: 0.13; stroke-linecap: round"/>
    <path d="M 3156.308777 1489.943894 
L 3159.849245 1487.211663 
L 3159.910749 1491.683376 
L 3156.308777 1489.943894 
z
" clip-path="url(#pf2aff44821)" style="stroke: #000000; stroke-width: 0.13; stroke-linecap: round"/>
   </g>
   <g id="patch_59">
    <path d="M 2342.846575 3157.782027 
Q 2524.769625 1954.176432 2706.670953 750.714549 
" clip-path="url(#pf2aff44821)" style="fill: none; stroke: #000000; stroke-width: 0.13; stroke-linecap: round"/>
    <path d="M 2704.095612 754.370724 
L 2706.670953 750.714549 
L 2708.050688 754.968527 
L 2704.095612 754.370724 
z
" clip-path="url(#pf2aff44821)" style="stroke: #000000; stroke-width: 0.13; stroke-linecap: round"/>
   </g>
   <g id="patch_60">
    <path d="M 2338.180345 3157.428969 
Q 2338.180324 1816.886401 2338.180302 476.489176 
" clip-path="url(#pf2aff44821)" style="fill: none; stroke: #000000; stroke-width: 0.13; stroke-linecap: round"/>
    <path d="M 2336.180302 480.489177 
L 2338.180302 476.489176 
L 2340.180302 480.489176 
L 2336.180302 480.489177 
z
" clip-path="url(#pf2aff44821)" style="stroke: #000000; stroke-width: 0.13; stroke-linecap: round"/>
   </g>
   <g id="patch_61">
    <path d="M 2729.68773 2949.091947 
Q 2954.611275 2221.946906 3179.491868 1494.940719 
" clip-path="url(#pf2aff44821)" style="fill: none; stroke: #000000; stroke-width: 0.13; stroke-linecap: round"/>
    <path d="M 3176.39915 1498.171058 
L 3179.491868 1494.940719 
L 3180.220509 1499.353097 
L 3176.39915 1498.171058 
z
" clip-path="url(#pf2aff44821)" style="stroke: #000000; stroke-width: 0.13; stroke-linecap: round"/>
   </g>
   <g id="patch_62">
    <path d="M 3207.563046 2211.59016 
Q 2787.005478 1340.735227 2366.511115 470.011176 
" clip-path="url(#pf2aff44821)" style="fill: none; stroke: #000000; stroke-width: 0.13; stroke-linecap: round"/>
    <path d="M 2366.449611 474.482889 
L 2366.511115 470.011176 
L 2370.051583 472.743407 
L 2366.449611 474.482889 
z
" clip-path="url(#pf2aff44821)" style="stroke: #000000; stroke-width: 0.13; stroke-linecap: round"/>
   </g>
   <g id="PathCollection_1">
    <path d="M 3287.603306 1840.311289 
C 3298.293985 1840.311289 3308.54824 1836.063837 3316.107691 1828.504386 
C 3323.667143 1820.944934 3327.914595 1810.690679 3327.914595 1800 
C 3327.914595 1789.309321 3323.667143 1779.055066 3316.107691 1771.495614 
C 3308.54824 1763.936163 3298.293985 1759.688711 3287.603306 1759.688711 
C 3276.912627 1759.688711 3266.658372 1763.936163 3259.09892 1771.495614 
C 3251.539469 1779.055066 3247.292017 1789.309321 3247.292017 1800 
C 3247.292017 1810.690679 3251.539469 1820.944934 3259.09892 1828.504386 
C 3266.658372 1836.063837 3276.912627 1840.311289 3287.603306 1840.311289 
z
" clip-path="url(#pf2aff44821)" style="fill: #ff0000; stroke: #ff0000"/>
    <path d="M 3221.142073 1501.092956 
C 3258.483009 1501.092956 3294.299583 1486.257245 3320.703612 1459.853216 
C 3347.107641 1433.449187 3361.943351 1397.632613 3361.943351 1360.291677 
C 3361.943351 1322.950742 3347.107641 1287.134167 3320.703612 1260.730139 
C 3294.299583 1234.32611 3258.483009 1219.490399 3221.142073 1219.490399 
C 3183.801138 1219.490399 3147.984563 1234.32611 3121.580534 1260.730139 
C 3095.176506 1287.134167 3080.340795 1322.950742 3080.340795 1360.291677 
C 3080.340795 1397.632613 3095.176506 1433.449187 3121.580534 1459.853216 
C 3147.984563 1486.257245 3183.801138 1501.092956 3221.142073 1501.092956 
z
" clip-path="url(#pf2aff44821)" style="fill: #ff0000; stroke: #ff0000"/>
    <path d="M 3027.663841 1119.887555 
C 3070.158448 1119.887555 3110.918307 1103.004269 3140.966533 1072.956044 
C 3171.014758 1042.907819 3187.898044 1002.147959 3187.898044 959.653352 
C 3187.898044 917.158744 3171.014758 876.398885 3140.966533 846.35066 
C 3110.918307 816.302435 3070.158448 799.419148 3027.663841 799.419148 
C 2985.169233 799.419148 2944.409374 816.302435 2914.361149 846.35066 
C 2884.312924 876.398885 2867.429637 917.158744 2867.429637 959.653352 
C 2867.429637 1002.147959 2884.312924 1042.907819 2914.361149 1072.956044 
C 2944.409374 1103.004269 2985.169233 1119.887555 3027.663841 1119.887555 
z
" clip-path="url(#pf2aff44821)" style="fill: #bf00bf; stroke: #bf00bf"/>
    <path d="M 2724.359996 751.899484 
C 2755.71122 751.899484 2785.7826 739.44351 2807.951264 717.274847 
C 2830.119927 695.106184 2842.5759 665.034804 2842.5759 633.68358 
C 2842.5759 602.332355 2830.119927 572.260975 2807.951264 550.092312 
C 2785.7826 527.923649 2755.71122 515.467675 2724.359996 515.467675 
C 2693.008772 515.467675 2662.937392 527.923649 2640.768729 550.092312 
C 2618.600065 572.260975 2606.144092 602.332355 2606.144092 633.68358 
C 2606.144092 665.034804 2618.600065 695.106184 2640.768729 717.274847 
C 2662.937392 739.44351 2693.008772 751.899484 2724.359996 751.899484 
z
" clip-path="url(#pf2aff44821)" style="fill: #bf00bf; stroke: #bf00bf"/>
    <path d="M 2338.180301 476.34613 
C 2355.418503 476.34613 2371.952993 469.49732 2384.142242 457.308071 
C 2396.331491 445.118822 2403.180301 428.584332 2403.180301 411.34613 
C 2403.180301 394.107929 2396.331491 377.573439 2384.142242 365.38419 
C 2371.952993 353.19494 2355.418503 346.34613 2338.180301 346.34613 
C 2320.9421 346.34613 2304.407609 353.19494 2292.21836 365.38419 
C 2280.029111 377.573439 2273.180301 394.107929 2273.180301 411.34613 
C 2273.180301 428.584332 2280.029111 445.118822 2292.21836 457.308071 
C 2304.407609 469.49732 2320.9421 476.34613 2338.180301 476.34613 
z
" clip-path="url(#pf2aff44821)" style="fill: #bfbf00; stroke: #bfbf00"/>
    <path d="M 1903.438773 337.891792 
C 1910.200151 337.891792 1916.685512 335.205467 1921.466529 330.424451 
C 1926.247546 325.643434 1928.93387 319.158073 1928.93387 312.396694 
C 1928.93387 305.635315 1926.247546 299.149955 1921.466529 294.368938 
C 1916.685512 289.587921 1910.200151 286.901597 1903.438773 286.901597 
C 1896.677394 286.901597 1890.192033 289.587921 1885.411016 294.368938 
C 1880.629999 299.149955 1877.943675 305.635315 1877.943675 312.396694 
C 1877.943675 319.158073 1880.629999 325.643434 1885.411016 330.424451 
C 1890.192033 335.205467 1896.677394 337.891792 1903.438773 337.891792 
z
" clip-path="url(#pf2aff44821)" style="fill: #008000; stroke: #008000"/>
    <path d="M 1458.76377 422.112558 
C 1479.047907 422.112558 1498.503989 414.053585 1512.847039 399.710534 
C 1527.19009 385.367484 1535.249063 365.911402 1535.249063 345.627265 
C 1535.249063 325.343128 1527.19009 305.887047 1512.847039 291.543996 
C 1498.503989 277.200945 1479.047907 269.141972 1458.76377 269.141972 
C 1438.479633 269.141972 1419.023552 277.200945 1404.680501 291.543996 
C 1390.33745 305.887047 1382.278477 325.343128 1382.278477 345.627265 
C 1382.278477 365.911402 1390.33745 385.367484 1404.680501 399.710534 
C 1419.023552 414.053585 1438.479633 422.112558 1458.76377 422.112558 
z
" clip-path="url(#pf2aff44821)" style="fill: #bf00bf; stroke: #bf00bf"/>
    <path d="M 1043.666776 559.07547 
C 1057.189534 559.07547 1070.160255 553.702822 1079.722289 544.140788 
C 1089.284322 534.578754 1094.656971 521.608033 1094.656971 508.085275 
C 1094.656971 494.562518 1089.284322 481.591796 1079.722289 472.029763 
C 1070.160255 462.467729 1057.189534 457.09508 1043.666776 457.09508 
C 1030.144018 457.09508 1017.173297 462.467729 1007.611263 472.029763 
C 998.049229 481.591796 992.676581 494.562518 992.676581 508.085275 
C 992.676581 521.608033 998.049229 534.578754 1007.611263 544.140788 
C 1017.173297 553.702822 1030.144018 559.07547 1043.666776 559.07547 
z
" clip-path="url(#pf2aff44821)" style="fill: #bfbf00; stroke: #bfbf00"/>
    <path d="M 695.031104 924.978033 
C 732.064701 924.978033 767.586484 910.264429 793.773192 884.077721 
C 819.9599 857.891013 834.673504 822.36923 834.673504 785.335632 
C 834.673504 748.302035 819.9599 712.780252 793.773192 686.593544 
C 767.586484 660.406836 732.064701 645.693232 695.031104 645.693232 
C 657.997506 645.693232 622.475723 660.406836 596.289015 686.593544 
C 570.102307 712.780252 555.388703 748.302035 555.388703 785.335632 
C 555.388703 822.36923 570.102307 857.891013 596.289015 884.077721 
C 622.475723 910.264429 657.997506 924.978033 695.031104 924.978033 
z
" clip-path="url(#pf2aff44821)" style="fill: #bfbf00; stroke: #bfbf00"/>
    <path d="M 443.834456 1217.74312 
C 461.072658 1217.74312 477.607148 1210.89431 489.796397 1198.705061 
C 501.985646 1186.515812 508.834456 1169.981322 508.834456 1152.74312 
C 508.834456 1135.504919 501.985646 1118.970429 489.796397 1106.781179 
C 477.607148 1094.59193 461.072658 1087.74312 443.834456 1087.74312 
C 426.596255 1087.74312 410.061765 1094.59193 397.872515 1106.781179 
C 385.683266 1118.970429 378.834456 1135.504919 378.834456 1152.74312 
C 378.834456 1169.981322 385.683266 1186.515812 397.872515 1198.705061 
C 410.061765 1210.89431 426.596255 1217.74312 443.834456 1217.74312 
z
" clip-path="url(#pf2aff44821)" style="fill: #bfbf00; stroke: #bfbf00"/>
    <path d="M 312.396694 1628.652635 
C 325.919452 1628.652635 338.890173 1623.279986 348.452207 1613.717952 
C 358.014241 1604.155919 363.386889 1591.185198 363.386889 1577.66244 
C 363.386889 1564.139682 358.014241 1551.168961 348.452207 1541.606927 
C 338.890173 1532.044893 325.919452 1526.672245 312.396694 1526.672245 
C 298.873936 1526.672245 285.903215 1532.044893 276.341181 1541.606927 
C 266.779148 1551.168961 261.406499 1564.139682 261.406499 1577.66244 
C 261.406499 1591.185198 266.779148 1604.155919 276.341181 1613.717952 
C 285.903215 1623.279986 298.873936 1628.652635 312.396694 1628.652635 
z
" clip-path="url(#pf2aff44821)" style="fill: #bfbf00; stroke: #bfbf00"/>
    <path d="M 312.396694 2053.562461 
C 320.677658 2053.562461 328.62057 2050.272399 334.476096 2044.416874 
C 340.331622 2038.561348 343.621684 2030.618436 343.621684 2022.337471 
C 343.621684 2014.056507 340.331622 2006.113595 334.476096 2000.258069 
C 328.62057 1994.402543 320.677658 1991.112481 312.396694 1991.112481 
C 304.11573 1991.112481 296.172818 1994.402543 290.317292 2000.258069 
C 284.461766 2006.113595 281.171704 2014.056507 281.171704 2022.337471 
C 281.171704 2030.618436 284.461766 2038.561348 290.317292 2044.416874 
C 296.172818 2050.272399 304.11573 2053.562461 312.396694 2053.562461 
z
" clip-path="url(#pf2aff44821)" style="fill: #008000; stroke: #008000"/>
    <path d="M 443.834456 2483.312304 
C 453.39649 2483.312304 462.568175 2479.513267 469.329554 2472.751889 
C 476.090933 2465.99051 479.889969 2456.818825 479.889969 2447.256791 
C 479.889969 2437.694757 476.090933 2428.523072 469.329554 2421.761693 
C 462.568175 2415.000314 453.39649 2411.201278 443.834456 2411.201278 
C 434.272422 2411.201278 425.100738 2415.000314 418.339359 2421.761693 
C 411.57798 2428.523072 407.778943 2437.694757 407.778943 2447.256791 
C 407.778943 2456.818825 411.57798 2465.99051 418.339359 2472.751889 
C 425.100738 2479.513267 434.272422 2483.312304 443.834456 2483.312304 
z
" clip-path="url(#pf2aff44821)" style="fill: #00bfbf; stroke: #00bfbf"/>
    <path d="M 695.031193 2850.719969 
C 704.593227 2850.719969 713.764911 2846.920933 720.52629 2840.159554 
C 727.287669 2833.398175 731.086706 2824.22649 731.086706 2814.664457 
C 731.086706 2805.102423 727.287669 2795.930738 720.52629 2789.169359 
C 713.764911 2782.40798 704.593227 2778.608944 695.031193 2778.608944 
C 685.469159 2778.608944 676.297474 2782.40798 669.536095 2789.169359 
C 662.774716 2795.930738 658.97568 2805.102423 658.97568 2814.664457 
C 658.97568 2824.22649 662.774716 2833.398175 669.536095 2840.159554 
C 676.297474 2846.920933 685.469159 2850.719969 695.031193 2850.719969 
z
" clip-path="url(#pf2aff44821)" style="fill: #0000ff; stroke: #0000ff"/>
    <path d="M 1043.666999 3123.139804 
C 1051.947963 3123.139804 1059.890875 3119.849742 1065.746401 3113.994216 
C 1071.601927 3108.13869 1074.891989 3100.195778 1074.891989 3091.914814 
C 1074.891989 3083.633849 1071.601927 3075.690937 1065.746401 3069.835411 
C 1059.890875 3063.979885 1051.947963 3060.689824 1043.666999 3060.689824 
C 1035.386035 3060.689824 1027.443123 3063.979885 1021.587597 3069.835411 
C 1015.732071 3075.690937 1012.442009 3083.633849 1012.442009 3091.914814 
C 1012.442009 3100.195778 1015.732071 3108.13869 1021.587597 3113.994216 
C 1027.443123 3119.849742 1035.386035 3123.139804 1043.666999 3123.139804 
z
" clip-path="url(#pf2aff44821)" style="fill: #0000ff; stroke: #0000ff"/>
    <path d="M 1458.763681 3279.867832 
C 1465.52506 3279.867832 1472.01042 3277.181508 1476.791437 3272.400491 
C 1481.572454 3267.619474 1484.258779 3261.134114 1484.258779 3254.372735 
C 1484.258779 3247.611356 1481.572454 3241.125995 1476.791437 3236.344978 
C 1472.01042 3231.563962 1465.52506 3228.877637 1458.763681 3228.877637 
C 1452.002302 3228.877637 1445.516941 3231.563962 1440.735925 3236.344978 
C 1435.954908 3241.125995 1433.268583 3247.611356 1433.268583 3254.372735 
C 1433.268583 3261.134114 1435.954908 3267.619474 1440.735925 3272.400491 
C 1445.516941 3277.181508 1452.002302 3279.867832 1458.763681 3279.867832 
z
" clip-path="url(#pf2aff44821)" style="fill: #bfbf00; stroke: #bfbf00"/>
    <path d="M 1903.43904 3305.631062 
C 1908.220057 3305.631062 1912.805899 3303.731544 1916.186589 3300.350855 
C 1919.567278 3296.970165 1921.466796 3292.384323 1921.466796 3287.603306 
C 1921.466796 3282.822289 1919.567278 3278.236446 1916.186589 3274.855757 
C 1912.805899 3271.475068 1908.220057 3269.575549 1903.43904 3269.575549 
C 1898.658023 3269.575549 1894.072181 3271.475068 1890.691491 3274.855757 
C 1887.310802 3278.236446 1885.411284 3282.822289 1885.411284 3287.603306 
C 1885.411284 3292.384323 1887.310802 3296.970165 1890.691491 3300.350855 
C 1894.072181 3303.731544 1898.658023 3305.631062 1903.43904 3305.631062 
z
" clip-path="url(#pf2aff44821)" style="fill: #bf00bf; stroke: #bf00bf"/>
    <path d="M 2338.180346 3219.87886 
C 2346.46131 3219.87886 2354.404222 3216.588798 2360.259748 3210.733272 
C 2366.115274 3204.877746 2369.405336 3196.934834 2369.405336 3188.65387 
C 2369.405336 3180.372905 2366.115274 3172.429993 2360.259748 3166.574467 
C 2354.404222 3160.718942 2346.46131 3157.42888 2338.180346 3157.42888 
C 2329.899381 3157.42888 2321.956469 3160.718942 2316.100943 3166.574467 
C 2310.245418 3172.429993 2306.955356 3180.372905 2306.955356 3188.65387 
C 2306.955356 3196.934834 2310.245418 3204.877746 2316.100943 3210.733272 
C 2321.956469 3216.588798 2329.899381 3219.87886 2338.180346 3219.87886 
z
" clip-path="url(#pf2aff44821)" style="fill: #ff0000; stroke: #ff0000"/>
    <path d="M 2724.359729 2984.344355 
C 2729.140745 2984.344355 2733.726588 2982.444836 2737.107277 2979.064147 
C 2740.487967 2975.683458 2742.387485 2971.097615 2742.387485 2966.316598 
C 2742.387485 2961.535581 2740.487967 2956.949739 2737.107277 2953.569049 
C 2733.726588 2950.18836 2729.140745 2948.288842 2724.359729 2948.288842 
C 2719.578712 2948.288842 2714.992869 2950.18836 2711.61218 2953.569049 
C 2708.23149 2956.949739 2706.331972 2961.535581 2706.331972 2966.316598 
C 2706.331972 2971.097615 2708.23149 2975.683458 2711.61218 2979.064147 
C 2714.992869 2982.444836 2719.578712 2984.344355 2724.359729 2984.344355 
z
" clip-path="url(#pf2aff44821)" style="fill: #00bfbf; stroke: #00bfbf"/>
    <path d="M 3027.66393 2658.374227 
C 3032.444947 2658.374227 3037.030789 2656.474709 3040.411479 2653.094019 
C 3043.792168 2649.71333 3045.691686 2645.127487 3045.691686 2640.34647 
C 3045.691686 2635.565453 3043.792168 2630.979611 3040.411479 2627.598922 
C 3037.030789 2624.218232 3032.444947 2622.318714 3027.66393 2622.318714 
C 3022.882913 2622.318714 3018.29707 2624.218232 3014.916381 2627.598922 
C 3011.535692 2630.979611 3009.636173 2635.565453 3009.636173 2640.34647 
C 3009.636173 2645.127487 3011.535692 2649.71333 3014.916381 2653.094019 
C 3018.29707 2656.474709 3022.882913 2658.374227 3027.66393 2658.374227 
z
" clip-path="url(#pf2aff44821)" style="fill: #bf00bf; stroke: #bf00bf"/>
    <path d="M 3221.142073 2270.933446 
C 3229.423037 2270.933446 3237.365949 2267.643384 3243.221475 2261.787858 
C 3249.077001 2255.932332 3252.367063 2247.98942 3252.367063 2239.708456 
C 3252.367063 2231.427492 3249.077001 2223.48458 3243.221475 2217.629054 
C 3237.365949 2211.773528 3229.423037 2208.483466 3221.142073 2208.483466 
C 3212.861109 2208.483466 3204.918197 2211.773528 3199.062671 2217.629054 
C 3193.207145 2223.48458 3189.917083 2231.427492 3189.917083 2239.708456 
C 3189.917083 2247.98942 3193.207145 2255.932332 3199.062671 2261.787858 
C 3204.918197 2267.643384 3212.861109 2270.933446 3221.142073 2270.933446 
z
" clip-path="url(#pf2aff44821)" style="fill: #ff0000; stroke: #ff0000"/>
   </g>
   <g id="text_1">
    <g clip-path="url(#pf2aff44821)">
     <!-- K -->
     <g transform="translate(3277.766587 1808.278125) scale(0.3 -0.3)">
      <defs>
       <path id="DejaVuSans-4b" d="M 628 4666 
L 1259 4666 
L 1259 2694 
L 3353 4666 
L 4166 4666 
L 1850 2491 
L 4331 0 
L 3500 0 
L 1259 2247 
L 1259 0 
L 628 0 
L 628 4666 
z
" transform="scale(0.015625)"/>
      </defs>
      <use xlink:href="#DejaVuSans-4b"/>
     </g>
    </g>
   </g>
   <g id="text_2">
    <g clip-path="url(#pf2aff44821)">
     <!-- C -->
     <g transform="translate(3210.667854 1368.569802) scale(0.3 -0.3)">
      <defs>
       <path id="DejaVuSans-43" d="M 4122 4306 
L 4122 3641 
Q 3803 3938 3442 4084 
Q 3081 4231 2675 4231 
Q 1875 4231 1450 3742 
Q 1025 3253 1025 2328 
Q 1025 1406 1450 917 
Q 1875 428 2675 428 
Q 3081 428 3442 575 
Q 3803 722 4122 1019 
L 4122 359 
Q 3791 134 3420 21 
Q 3050 -91 2638 -91 
Q 1578 -91 968 557 
Q 359 1206 359 2328 
Q 359 3453 968 4101 
Q 1578 4750 2638 4750 
Q 3056 4750 3426 4639 
Q 3797 4528 4122 4306 
z
" transform="scale(0.015625)"/>
      </defs>
      <use xlink:href="#DejaVuSans-43"/>
     </g>
    </g>
   </g>
   <g id="text_3">
    <g clip-path="url(#pf2aff44821)">
     <!-- O -->
     <g transform="translate(3015.856028 967.931477) scale(0.3 -0.3)">
      <defs>
       <path id="DejaVuSans-4f" d="M 2522 4238 
Q 1834 4238 1429 3725 
Q 1025 3213 1025 2328 
Q 1025 1447 1429 934 
Q 1834 422 2522 422 
Q 3209 422 3611 934 
Q 4013 1447 4013 2328 
Q 4013 3213 3611 3725 
Q 3209 4238 2522 4238 
z
M 2522 4750 
Q 3503 4750 4090 4092 
Q 4678 3434 4678 2328 
Q 4678 1225 4090 567 
Q 3503 -91 2522 -91 
Q 1538 -91 948 565 
Q 359 1222 359 2328 
Q 359 3434 948 4092 
Q 1538 4750 2522 4750 
z
" transform="scale(0.015625)"/>
      </defs>
      <use xlink:href="#DejaVuSans-4f"/>
     </g>
    </g>
   </g>
   <g id="text_4">
    <g clip-path="url(#pf2aff44821)">
     <!-- N -->
     <g transform="translate(2713.138121 641.961705) scale(0.3 -0.3)">
      <defs>
       <path id="DejaVuSans-4e" d="M 628 4666 
L 1478 4666 
L 3547 763 
L 3547 4666 
L 4159 4666 
L 4159 0 
L 3309 0 
L 1241 3903 
L 1241 0 
L 628 0 
L 628 4666 
z
" transform="scale(0.015625)"/>
      </defs>
      <use xlink:href="#DejaVuSans-4e"/>
     </g>
    </g>
   </g>
   <g id="text_5">
    <g clip-path="url(#pf2aff44821)">
     <!-- Cl -->
     <g transform="translate(2323.538895 419.624255) scale(0.3 -0.3)">
      <defs>
       <path id="DejaVuSans-6c" d="M 603 4863 
L 1178 4863 
L 1178 0 
L 603 0 
L 603 4863 
z
" transform="scale(0.015625)"/>
      </defs>
      <use xlink:href="#DejaVuSans-43"/>
      <use xlink:href="#DejaVuSans-6c" x="69.824219"/>
     </g>
    </g>
   </g>
   <g id="text_6">
    <g clip-path="url(#pf2aff44821)">
     <!-- I -->
     <g transform="translate(1899.013773 320.674819) scale(0.3 -0.3)">
      <defs>
       <path id="DejaVuSans-49" d="M 628 4666 
L 1259 4666 
L 1259 0 
L 628 0 
L 628 4666 
z
" transform="scale(0.015625)"/>
      </defs>
      <use xlink:href="#DejaVuSans-49"/>
     </g>
    </g>
   </g>
   <g id="text_7">
    <g clip-path="url(#pf2aff44821)">
     <!-- Na -->
     <g transform="translate(1438.349708 353.90539) scale(0.3 -0.3)">
      <defs>
       <path id="DejaVuSans-61" d="M 2194 1759 
Q 1497 1759 1228 1600 
Q 959 1441 959 1056 
Q 959 750 1161 570 
Q 1363 391 1709 391 
Q 2188 391 2477 730 
Q 2766 1069 2766 1631 
L 2766 1759 
L 2194 1759 
z
M 3341 1997 
L 3341 0 
L 2766 0 
L 2766 531 
Q 2569 213 2275 61 
Q 1981 -91 1556 -91 
Q 1019 -91 701 211 
Q 384 513 384 1019 
Q 384 1609 779 1909 
Q 1175 2209 1959 2209 
L 2766 2209 
L 2766 2266 
Q 2766 2663 2505 2880 
Q 2244 3097 1772 3097 
Q 1472 3097 1187 3025 
Q 903 2953 641 2809 
L 641 3341 
Q 956 3463 1253 3523 
Q 1550 3584 1831 3584 
Q 2591 3584 2966 3190 
Q 3341 2797 3341 1997 
z
" transform="scale(0.015625)"/>
      </defs>
      <use xlink:href="#DejaVuSans-4e"/>
      <use xlink:href="#DejaVuSans-61" x="74.804688"/>
     </g>
    </g>
   </g>
   <g id="text_8">
    <g clip-path="url(#pf2aff44821)">
     <!-- P -->
     <g transform="translate(1034.622245 516.3634) scale(0.3 -0.3)">
      <defs>
       <path id="DejaVuSans-50" d="M 1259 4147 
L 1259 2394 
L 2053 2394 
Q 2494 2394 2734 2622 
Q 2975 2850 2975 3272 
Q 2975 3691 2734 3919 
Q 2494 4147 2053 4147 
L 1259 4147 
z
M 628 4666 
L 2053 4666 
Q 2838 4666 3239 4311 
Q 3641 3956 3641 3272 
Q 3641 2581 3239 2228 
Q 2838 1875 2053 1875 
L 1259 1875 
L 1259 0 
L 628 0 
L 628 4666 
z
" transform="scale(0.015625)"/>
      </defs>
      <use xlink:href="#DejaVuSans-50"/>
     </g>
    </g>
   </g>
   <g id="text_9">
    <g clip-path="url(#pf2aff44821)">
     <!-- H -->
     <g transform="translate(683.750635 793.613757) scale(0.3 -0.3)">
      <defs>
       <path id="DejaVuSans-48" d="M 628 4666 
L 1259 4666 
L 1259 2753 
L 3553 2753 
L 3553 4666 
L 4184 4666 
L 4184 0 
L 3553 0 
L 3553 2222 
L 1259 2222 
L 1259 0 
L 628 0 
L 628 4666 
z
" transform="scale(0.015625)"/>
      </defs>
      <use xlink:href="#DejaVuSans-48"/>
     </g>
    </g>
   </g>
   <g id="text_10">
    <g clip-path="url(#pf2aff44821)">
     <!-- S -->
     <g transform="translate(434.3118 1161.021245) scale(0.3 -0.3)">
      <defs>
       <path id="DejaVuSans-53" d="M 3425 4513 
L 3425 3897 
Q 3066 4069 2747 4153 
Q 2428 4238 2131 4238 
Q 1616 4238 1336 4038 
Q 1056 3838 1056 3469 
Q 1056 3159 1242 3001 
Q 1428 2844 1947 2747 
L 2328 2669 
Q 3034 2534 3370 2195 
Q 3706 1856 3706 1288 
Q 3706 609 3251 259 
Q 2797 -91 1919 -91 
Q 1588 -91 1214 -16 
Q 841 59 441 206 
L 441 856 
Q 825 641 1194 531 
Q 1563 422 1919 422 
Q 2459 422 2753 634 
Q 3047 847 3047 1241 
Q 3047 1584 2836 1778 
Q 2625 1972 2144 2069 
L 1759 2144 
Q 1053 2284 737 2584 
Q 422 2884 422 3419 
Q 422 4038 858 4394 
Q 1294 4750 2059 4750 
Q 2388 4750 2728 4690 
Q 3069 4631 3425 4513 
z
" transform="scale(0.015625)"/>
      </defs>
      <use xlink:href="#DejaVuSans-53"/>
     </g>
    </g>
   </g>
   <g id="text_11">
    <g clip-path="url(#pf2aff44821)">
     <!-- Ca -->
     <g transform="translate(292.730288 1585.940565) scale(0.3 -0.3)">
      <use xlink:href="#DejaVuSans-43"/>
      <use xlink:href="#DejaVuSans-61" x="69.824219"/>
     </g>
    </g>
   </g>
   <g id="text_12">
    <g clip-path="url(#pf2aff44821)">
     <!-- Ba -->
     <g transform="translate(292.9131 2030.615596) scale(0.3 -0.3)">
      <defs>
       <path id="DejaVuSans-42" d="M 1259 2228 
L 1259 519 
L 2272 519 
Q 2781 519 3026 730 
Q 3272 941 3272 1375 
Q 3272 1813 3026 2020 
Q 2781 2228 2272 2228 
L 1259 2228 
z
M 1259 4147 
L 1259 2741 
L 2194 2741 
Q 2656 2741 2882 2914 
Q 3109 3088 3109 3444 
Q 3109 3797 2882 3972 
Q 2656 4147 2194 4147 
L 1259 4147 
z
M 628 4666 
L 2241 4666 
Q 2963 4666 3353 4366 
Q 3744 4066 3744 3513 
Q 3744 3084 3544 2831 
Q 3344 2578 2956 2516 
Q 3422 2416 3680 2098 
Q 3938 1781 3938 1306 
Q 3938 681 3513 340 
Q 3088 0 2303 0 
L 628 0 
L 628 4666 
z
" transform="scale(0.015625)"/>
      </defs>
      <use xlink:href="#DejaVuSans-42"/>
      <use xlink:href="#DejaVuSans-61" x="68.603516"/>
     </g>
    </g>
   </g>
   <g id="text_13">
    <g clip-path="url(#pf2aff44821)">
     <!-- Mg -->
     <g transform="translate(421.369612 2455.534916) scale(0.3 -0.3)">
      <defs>
       <path id="DejaVuSans-4d" d="M 628 4666 
L 1569 4666 
L 2759 1491 
L 3956 4666 
L 4897 4666 
L 4897 0 
L 4281 0 
L 4281 4097 
L 3078 897 
L 2444 897 
L 1241 4097 
L 1241 0 
L 628 0 
L 628 4666 
z
" transform="scale(0.015625)"/>
       <path id="DejaVuSans-67" d="M 2906 1791 
Q 2906 2416 2648 2759 
Q 2391 3103 1925 3103 
Q 1463 3103 1205 2759 
Q 947 2416 947 1791 
Q 947 1169 1205 825 
Q 1463 481 1925 481 
Q 2391 481 2648 825 
Q 2906 1169 2906 1791 
z
M 3481 434 
Q 3481 -459 3084 -895 
Q 2688 -1331 1869 -1331 
Q 1566 -1331 1297 -1286 
Q 1028 -1241 775 -1147 
L 775 -588 
Q 1028 -725 1275 -790 
Q 1522 -856 1778 -856 
Q 2344 -856 2625 -561 
Q 2906 -266 2906 331 
L 2906 616 
Q 2728 306 2450 153 
Q 2172 0 1784 0 
Q 1141 0 747 490 
Q 353 981 353 1791 
Q 353 2603 747 3093 
Q 1141 3584 1784 3584 
Q 2172 3584 2450 3431 
Q 2728 3278 2906 2969 
L 2906 3500 
L 3481 3500 
L 3481 434 
z
" transform="scale(0.015625)"/>
      </defs>
      <use xlink:href="#DejaVuSans-4d"/>
      <use xlink:href="#DejaVuSans-67" x="86.279297"/>
     </g>
    </g>
   </g>
   <g id="text_14">
    <g clip-path="url(#pf2aff44821)">
     <!-- Al -->
     <g transform="translate(680.603068 2822.942582) scale(0.3 -0.3)">
      <defs>
       <path id="DejaVuSans-41" d="M 2188 4044 
L 1331 1722 
L 3047 1722 
L 2188 4044 
z
M 1831 4666 
L 2547 4666 
L 4325 0 
L 3669 0 
L 3244 1197 
L 1141 1197 
L 716 0 
L 50 0 
L 1831 4666 
z
" transform="scale(0.015625)"/>
      </defs>
      <use xlink:href="#DejaVuSans-41"/>
      <use xlink:href="#DejaVuSans-6c" x="68.408203"/>
     </g>
    </g>
   </g>
   <g id="text_15">
    <g clip-path="url(#pf2aff44821)">
     <!-- Zn -->
     <g transform="translate(1023.885749 3100.192939) scale(0.3 -0.3)">
      <defs>
       <path id="DejaVuSans-5a" d="M 359 4666 
L 4025 4666 
L 4025 4184 
L 1075 531 
L 4097 531 
L 4097 0 
L 288 0 
L 288 481 
L 3238 4134 
L 359 4134 
L 359 4666 
z
" transform="scale(0.015625)"/>
       <path id="DejaVuSans-6e" d="M 3513 2113 
L 3513 0 
L 2938 0 
L 2938 2094 
Q 2938 2591 2744 2837 
Q 2550 3084 2163 3084 
Q 1697 3084 1428 2787 
Q 1159 2491 1159 1978 
L 1159 0 
L 581 0 
L 581 3500 
L 1159 3500 
L 1159 2956 
Q 1366 3272 1645 3428 
Q 1925 3584 2291 3584 
Q 2894 3584 3203 3211 
Q 3513 2838 3513 2113 
z
" transform="scale(0.015625)"/>
      </defs>
      <use xlink:href="#DejaVuSans-5a"/>
      <use xlink:href="#DejaVuSans-6e" x="68.505859"/>
     </g>
    </g>
   </g>
   <g id="text_16">
    <g clip-path="url(#pf2aff44821)">
     <!-- Fe -->
     <g transform="translate(1441.73165 3262.65086) scale(0.3 -0.3)">
      <defs>
       <path id="DejaVuSans-46" d="M 628 4666 
L 3309 4666 
L 3309 4134 
L 1259 4134 
L 1259 2759 
L 3109 2759 
L 3109 2228 
L 1259 2228 
L 1259 0 
L 628 0 
L 628 4666 
z
" transform="scale(0.015625)"/>
       <path id="DejaVuSans-65" d="M 3597 1894 
L 3597 1613 
L 953 1613 
Q 991 1019 1311 708 
Q 1631 397 2203 397 
Q 2534 397 2845 478 
Q 3156 559 3463 722 
L 3463 178 
Q 3153 47 2828 -22 
Q 2503 -91 2169 -91 
Q 1331 -91 842 396 
Q 353 884 353 1716 
Q 353 2575 817 3079 
Q 1281 3584 2069 3584 
Q 2775 3584 3186 3129 
Q 3597 2675 3597 1894 
z
M 3022 2063 
Q 3016 2534 2758 2815 
Q 2500 3097 2075 3097 
Q 1594 3097 1305 2825 
Q 1016 2553 972 2059 
L 3022 2063 
z
" transform="scale(0.015625)"/>
      </defs>
      <use xlink:href="#DejaVuSans-46"/>
      <use xlink:href="#DejaVuSans-65" x="52.019531"/>
     </g>
    </g>
   </g>
   <g id="text_17">
    <g clip-path="url(#pf2aff44821)">
     <!-- Cu -->
     <g transform="translate(1883.458571 3295.881431) scale(0.3 -0.3)">
      <defs>
       <path id="DejaVuSans-75" d="M 544 1381 
L 544 3500 
L 1119 3500 
L 1119 1403 
Q 1119 906 1312 657 
Q 1506 409 1894 409 
Q 2359 409 2629 706 
Q 2900 1003 2900 1516 
L 2900 3500 
L 3475 3500 
L 3475 0 
L 2900 0 
L 2900 538 
Q 2691 219 2414 64 
Q 2138 -91 1772 -91 
Q 1169 -91 856 284 
Q 544 659 544 1381 
z
M 1991 3584 
L 1991 3584 
z
" transform="scale(0.015625)"/>
      </defs>
      <use xlink:href="#DejaVuSans-43"/>
      <use xlink:href="#DejaVuSans-75" x="69.824219"/>
     </g>
    </g>
   </g>
   <g id="text_18">
    <g clip-path="url(#pf2aff44821)">
     <!-- Ag -->
     <g transform="translate(2318.396752 3196.931995) scale(0.3 -0.3)">
      <use xlink:href="#DejaVuSans-41"/>
      <use xlink:href="#DejaVuSans-67" x="68.408203"/>
     </g>
    </g>
   </g>
   <g id="text_19">
    <g clip-path="url(#pf2aff44821)">
     <!-- Au -->
     <g transform="translate(2704.592541 2974.594723) scale(0.3 -0.3)">
      <use xlink:href="#DejaVuSans-41"/>
      <use xlink:href="#DejaVuSans-75" x="68.408203"/>
     </g>
    </g>
   </g>
   <g id="text_20">
    <g clip-path="url(#pf2aff44821)">
     <!-- Br -->
     <g transform="translate(3011.206117 2648.624595) scale(0.3 -0.3)">
      <defs>
       <path id="DejaVuSans-72" d="M 2631 2963 
Q 2534 3019 2420 3045 
Q 2306 3072 2169 3072 
Q 1681 3072 1420 2755 
Q 1159 2438 1159 1844 
L 1159 0 
L 581 0 
L 581 3500 
L 1159 3500 
L 1159 2956 
Q 1341 3275 1631 3429 
Q 1922 3584 2338 3584 
Q 2397 3584 2469 3576 
Q 2541 3569 2628 3553 
L 2631 2963 
z
" transform="scale(0.015625)"/>
      </defs>
      <use xlink:href="#DejaVuSans-42"/>
      <use xlink:href="#DejaVuSans-72" x="68.603516"/>
     </g>
    </g>
   </g>
   <g id="text_21">
    <g clip-path="url(#pf2aff44821)">
     <!-- F -->
     <g transform="translate(3212.514729 2247.986581) scale(0.3 -0.3)">
      <use xlink:href="#DejaVuSans-46"/>
     </g>
    </g>
   </g>
  </g>
 </g>
 <defs>
  <clipPath id="pf2aff44821">
   <rect x="0" y="0" width="3600" height="3600"/>
  </clipPath>
 </defs>
</svg>
